<mxfile host="app.diagrams.net" modified="2023-08-08T15:18:34.824Z" agent="Mozilla/5.0 (Macintosh; Intel Mac OS X 10_15_7) AppleWebKit/537.36 (KHTML, like Gecko) Chrome/115.0.0.0 Safari/537.36" etag="GXJ6OzMpP2ye1fWJ26rZ" version="21.6.6" type="github">
  <diagram name="Page-1" id="zWZ8ZxJsztKhhZ3r-q9k">
    <mxGraphModel dx="1276" dy="1019" grid="1" gridSize="10" guides="1" tooltips="1" connect="1" arrows="1" fold="1" page="1" pageScale="1" pageWidth="827" pageHeight="1169" math="0" shadow="0">
      <root>
        <mxCell id="0" />
        <mxCell id="1" parent="0" />
        <mxCell id="zxRTqnn1pqqe6aT0bS_O-1" value="Hallo Welt" style="rounded=0;whiteSpace=wrap;html=1;" parent="1" vertex="1">
          <mxGeometry x="380" y="380" width="120" height="60" as="geometry" />
        </mxCell>
      </root>
    </mxGraphModel>
  </diagram>
</mxfile>
